<?xml version="1.0" encoding="UTF-8" standalone="no"?>
<svg
   xmlns:dc="http://purl.org/dc/elements/1.1/"
   xmlns:cc="http://creativecommons.org/ns#"
   xmlns:rdf="http://www.w3.org/1999/02/22-rdf-syntax-ns#"
   xmlns:svg="http://www.w3.org/2000/svg"
   xmlns="http://www.w3.org/2000/svg"
   xmlns:sodipodi="http://sodipodi.sourceforge.net/DTD/sodipodi-0.dtd"
   xmlns:inkscape="http://www.inkscape.org/namespaces/inkscape"
   width="300"
   height="300"
   viewBox="0 0 300 300"
   version="1.1"
   id="svg2216"
   inkscape:version="1.0.1 (3bc2e813f5, 2020-09-07)"
   sodipodi:docname="_MASTER-FRAME-FONT-NEW.svg">
  <defs
     id="defs2210" />
  <sodipodi:namedview
     id="base"
     pagecolor="#ffffff"
     bordercolor="#666666"
     borderopacity="1.0"
     inkscape:pageopacity="0.0"
     inkscape:pageshadow="2"
     inkscape:zoom="0.98994949"
     inkscape:cx="233.17409"
     inkscape:cy="184.99516"
     inkscape:document-units="px"
     inkscape:current-layer="layer1"
     showgrid="false"
     units="px"
     inkscape:window-width="1366"
     inkscape:window-height="705"
     inkscape:window-x="-8"
     inkscape:window-y="-8"
     inkscape:window-maximized="1"
     fit-margin-top="10"
     fit-margin-left="10"
     fit-margin-bottom="10"
     fit-margin-right="10"
     inkscape:showpageshadow="false"
     scale-x="1"
     inkscape:document-rotation="0" />
  <metadata
     id="metadata2213">
    <rdf:RDF>
      <cc:Work
         rdf:about="">
        <dc:format>image/svg+xml</dc:format>
        <dc:type
           rdf:resource="http://purl.org/dc/dcmitype/StillImage" />
        <dc:title />
      </cc:Work>
    </rdf:RDF>
  </metadata>
  <g
     inkscape:label="Layer 1"
     inkscape:groupmode="layer"
     id="layer1"
     transform="translate(0,0)">
    
<g
       aria-label="c"
       style="font-style:normal;font-variant:normal;font-weight:normal;font-stretch:normal;font-size:5.33333px;line-height:1.25;font-family:'Open Sans';-inkscape-font-specification:'Open Sans, Normal';font-variant-ligatures:normal;font-variant-caps:normal;font-variant-numeric:normal;font-feature-settings:normal;text-align:start;letter-spacing:0px;word-spacing:0px;writing-mode:lr-tb;text-anchor:start;fill:#266969;fill-opacity:1;stroke:none"
       id="text829"
       transform="translate(251.12219,-148.81795)">
      <path
         d="m -182.19714,256.79742 c 5.46875,1.17188 12.29473,1.47377 24.01348,-0.60957 1.30208,-27.99479 3.06985,-56.55188 1.76777,-84.15605 -0.26042,0 -0.52084,-0.0651 -0.78125,-0.19531 -0.26042,-0.26042 -0.52084,-0.45573 -0.78125,-0.58594 -22.26563,10.9375 -40.49479,25.65104 -54.6875,44.14062 -16.27605,21.09375 -25.32553,44.72657 -27.14844,70.89844 -2.21354,33.85417 4.75261,63.21615 20.89844,88.08594 14.45312,22.26563 34.21502,39.46987 61.42857,51.96987 0.27901,-33.5119 0.63616,-60.85752 -0.53571,-83.64398 -9.11459,-1.43229 -16.62203,-1.78943 -25.73661,-0.35714 -0.39063,2.34375 -0.26042,7.8125 0.39062,16.40625 0.52083,6.64063 -0.0651,11.00261 -1.75781,13.08594 -14.0625,-12.36979 -22.65625,-28.84115 -25.78125,-49.41407 -4.6875,-30.07812 -0.78125,-56.11979 11.71875,-78.125 5.33854,-9.375 10.28646,-14.77864 14.84375,-16.21093 0.91146,1.95312 1.10677,6.64062 0.58594,14.0625 -0.39063,7.29167 0.13021,12.17448 1.5625,14.64843 z"
         style="font-style:normal;font-variant:normal;font-weight:normal;font-stretch:normal;font-size:400px;font-family:SunCatcherStudioFont;-inkscape-font-specification:SunCatcherStudioFont;fill:#266969;fill-opacity:1"
         id="path823"
         inkscape:connector-curvature="0"
         sodipodi:nodetypes="cccccccccccccccccc" />
    </g>



<g
       aria-label="c"
       style="font-style:normal;font-variant:normal;font-weight:normal;font-stretch:normal;font-size:5.33333px;line-height:1.25;font-family:'Open Sans';-inkscape-font-specification:'Open Sans, Normal';font-variant-ligatures:normal;font-variant-caps:normal;font-variant-numeric:normal;font-feature-settings:normal;text-align:start;letter-spacing:0px;word-spacing:0px;writing-mode:lr-tb;text-anchor:start;fill:#266969;fill-opacity:1;stroke:none"
       id="text829"
       transform="translate(251.12219,-148.81795)">
      <path
         d="m -84.931519,342.3443 c -0.651041,7.16146 -0.911458,18.61979 -0.78125,34.375 0.130209,18.48958 0.130209,29.62239 0,33.39844 -3.515625,2.08333 -8.268229,3.125 -14.257812,3.125 -6.380209,0 -10.937499,-1.23698 -13.671879,-3.71094 0.13021,-13.41146 0.0651,-50.45573 -0.19531,-111.13281 0,-45.44271 0.32552,-82.16146 0.97656,-110.15625 10.15625,-3.125 19.205733,-3.125 27.148441,0 0.78125,8.07291 1.106771,19.53125 0.976563,34.375 -0.260417,18.35937 -0.325521,29.55729 -0.195313,33.59375 5.208333,1.43229 14.0625,1.43229 26.5625,0 0.651042,-11.06771 0.651042,-41.08074 0,-90.03907 -10.807291,-3.55108 -24.479166,-6.0862 -41.015625,-6.21641 -16.536456,-0.13021 -29.393496,1.89196 -41.601566,5.43516 -1.17187,88.80209 -1.17187,177.53907 0,266.21094 10.80729,4.81771 24.54427,7.22656 41.210941,7.22656 16.666667,0 30.46875,-2.40885 41.40625,-7.22656 1.302083,-29.6875 1.302083,-59.4401 0,-89.25781 -8.854167,-1.43229 -17.708333,-1.43229 -26.5625,0 z"
         style="font-style:normal;font-variant:normal;font-weight:normal;font-stretch:normal;font-size:400px;font-family:SunCatcherStudioFont;-inkscape-font-specification:SunCatcherStudioFont;fill:#266969;fill-opacity:1"
         id="path823"
         inkscape:connector-curvature="0"
         sodipodi:nodetypes="cccsccccccccsccsccc" />
    </g>



<g
       aria-label="c"
       style="font-style:normal;font-variant:normal;font-weight:normal;font-stretch:normal;font-size:5.33333px;line-height:1.25;font-family:'Open Sans';-inkscape-font-specification:'Open Sans, Normal';font-variant-ligatures:normal;font-variant-caps:normal;font-variant-numeric:normal;font-feature-settings:normal;text-align:start;letter-spacing:0px;word-spacing:0px;writing-mode:lr-tb;text-anchor:start;fill:#266969;fill-opacity:1;stroke:none"
       id="text829"
       transform="translate(251.12219,-148.81795)">
      <path
         d="m 2.8977225,343.12555 c 0.6510416,-1.04167 -2.14843753,4.49219 -8.3984375,16.60156 -3.3854167,6.64063 -7.226562,10.41667 -11.523437,11.32813 -0.520834,-14.58333 -0.78125,-56.57552 -0.78125,-125.97657 0,-0.78125 -0.0651,-2.21354 -0.195313,-4.29687 -0.130208,-1.82292 -0.195312,-3.25521 -0.195312,-4.29688 0.130208,-3.38541 0.976562,-5.92447 2.539062,-7.61718 3.385417,2.47395 6.8359375,6.96614 10.3515625,13.47656 3.90625,7.42187 6.9010416,12.23958 8.984375,14.45312 13.2812505,1.69271 22.3307295,1.4974 27.1484375,-0.58593 -12.239584,-40.10417 -36.3299854,-63.61793 -72.985491,-83.39844 0,0.26041 -0.130208,0.58593 -0.390625,0.97656 -0.260417,0.39063 -0.390625,0.78125 -0.390625,1.17188 v 250 c 38.2142857,-16.52902 56.136533,-41.66481 73.766741,-81.83594 -9.244792,-1.43229 -18.554687,-1.43229 -27.9296875,0 z"
         style="font-style:normal;font-variant:normal;font-weight:normal;font-stretch:normal;font-size:400px;font-family:SunCatcherStudioFont;-inkscape-font-specification:SunCatcherStudioFont;fill:#266969;fill-opacity:1"
         id="path823"
         inkscape:connector-curvature="0"
         sodipodi:nodetypes="cccscccccccssccc" />
    </g>



  </g>
</svg>
